<?xml version="1.0" encoding="utf-8"?>
<!-- Generator: Adobe Illustrator 15.0.0, SVG Export Plug-In . SVG Version: 6.00 Build 0)  -->
<!DOCTYPE svg PUBLIC "-//W3C//DTD SVG 1.1//EN" "http://www.w3.org/Graphics/SVG/1.1/DTD/svg11.dtd">
<svg version="1.1" id="Ebene_1" xmlns="http://www.w3.org/2000/svg" xmlns:xlink="http://www.w3.org/1999/xlink" x="0px" y="0px"
	 width="841.89px" height="595.28px" viewBox="0 0 841.89 595.28" enable-background="new 0 0 841.89 595.28" xml:space="preserve">
<g>
	<defs>
		<rect id="SVGID_1_" x="242" y="260.889" width="356.482" height="74.111"/>
	</defs>
	<clipPath id="SVGID_2_">
		<use xlink:href="#SVGID_1_"  overflow="visible"/>
	</clipPath>
	<path clip-path="url(#SVGID_2_)" fill="#FFFFFF" d="M351.128,327.781l6.969-19.671H346l1.209-3.41h28.228l-1.209,3.41h-11.769
		l-6.97,19.671H351.128z M392.109,327.781l-1.762-10.295h-12.163l-3.648,10.295h-4.36l8.177-23.081h19.606
		c1.311,0,2.378,0.138,3.199,0.41c0.821,0.273,1.434,0.656,1.839,1.148c0.405,0.49,0.619,1.076,0.641,1.753
		c0.022,0.678-0.114,1.432-0.408,2.263l-0.581,1.639c-0.527,1.486-1.403,2.728-2.63,3.722c-1.226,0.994-2.902,1.59-5.026,1.787
		l1.772,10.359H392.109z M398.882,310.241c0.503-1.421-0.207-2.131-2.13-2.131h-15.245l-2.114,5.967h15.245
		c1.923,0,3.137-0.711,3.64-2.131L398.882,310.241z M400.7,327.781l8.177-23.081h4.361l-8.178,23.081H400.7z M436.205,327.781
		l-5.314-18.589l-18.684,18.589h-4.852l23.521-23.081h3.181l7.067,23.081H436.205z M448.304,327.781l6.969-19.671h-12.097
		l1.208-3.41h28.228l-1.207,3.41h-11.771l-6.97,19.671H448.304z M490.597,327.781l3.717-10.491H475.43l-3.717,10.491h-4.36
		l8.177-23.081h4.36l-3.252,9.181h18.884l3.252-9.181h4.361l-8.178,23.081H490.597z M499.219,327.781l8.178-23.081h4.393
		l-6.969,19.671h18.721l-1.209,3.41H499.219z M532.463,327.781c-1.312,0-2.377-0.137-3.198-0.41
		c-0.821-0.272-1.435-0.654-1.84-1.147c-0.404-0.491-0.618-1.076-0.64-1.753c-0.023-0.678,0.113-1.433,0.407-2.264l4.228-11.933
		c0.295-0.831,0.693-1.585,1.195-2.263c0.502-0.677,1.131-1.263,1.885-1.753c0.752-0.492,1.637-0.875,2.651-1.148
		c1.015-0.272,2.177-0.41,3.489-0.41h15.245c1.312,0,2.378,0.138,3.198,0.41c0.822,0.273,1.435,0.656,1.841,1.148
		c0.403,0.49,0.618,1.076,0.64,1.753c0.021,0.678-0.113,1.432-0.408,2.263l-4.228,11.933c-0.294,0.831-0.693,1.586-1.195,2.264
		c-0.502,0.677-1.13,1.262-1.884,1.753c-0.753,0.493-1.637,0.875-2.652,1.147c-1.015,0.273-2.178,0.41-3.488,0.41H532.463z
		 M556.808,310.241c0.504-1.421-0.206-2.131-2.13-2.131h-15.245c-1.923,0-3.138,0.71-3.64,2.131l-4.252,11.999
		c-0.504,1.421,0.207,2.131,2.131,2.131h15.244c1.924,0,3.137-0.71,3.641-2.131L556.808,310.241z M587.477,327.781l-18.256-17.966
		l-6.365,17.966h-3.804l8.178-23.081H571l16.908,17.147l6.073-17.147h3.804l-8.178,23.081H587.477z"/>
	<path clip-path="url(#SVGID_2_)" fill="#FFFFFF" d="M346.043,301.97l1.225-3.409h20.064c1.924,0,3.14-0.71,3.651-2.131l1.047-2.918
		c0.511-1.421-0.196-2.132-2.119-2.132h-13.573c-1.312,0-2.377-0.136-3.197-0.408c-0.82-0.274-1.431-0.656-1.834-1.148
		c-0.403-0.492-0.613-1.076-0.632-1.754c-0.019-0.677,0.12-1.431,0.419-2.262l0.482-1.345c0.299-0.831,0.7-1.585,1.206-2.262
		c0.506-0.678,1.136-1.262,1.892-1.754s1.642-0.875,2.658-1.148c1.016-0.272,2.18-0.409,3.491-0.409h19.54l-1.224,3.409h-19.54
		c-1.923,0-3.14,0.71-3.65,2.132l-0.507,1.409c-0.51,1.421,0.197,2.132,2.12,2.132h13.573c1.312,0,2.377,0.137,3.197,0.409
		c0.82,0.273,1.431,0.655,1.834,1.147c0.402,0.492,0.613,1.077,0.632,1.754c0.019,0.678-0.12,1.432-0.419,2.262l-1.024,2.854
		c-0.298,0.83-0.7,1.584-1.206,2.262c-0.506,0.677-1.136,1.262-1.892,1.754s-1.642,0.874-2.658,1.147
		c-1.016,0.273-2.18,0.409-3.491,0.409H346.043z M389.484,301.97c-1.312,0-2.377-0.136-3.197-0.409
		c-0.82-0.273-1.431-0.655-1.834-1.147c-0.403-0.492-0.613-1.077-0.632-1.754c-0.019-0.678,0.12-1.432,0.419-2.262l6.287-17.508
		h4.36l-6.299,17.54c-0.51,1.421,0.197,2.131,2.12,2.131h14.327c1.924,0,3.14-0.71,3.65-2.131l6.299-17.54h4.361l-6.287,17.508
		c-0.298,0.83-0.651,1.584-1.059,2.262c-0.407,0.677-0.934,1.262-1.58,1.754c-0.647,0.492-1.429,0.874-2.347,1.147
		c-0.917,0.273-2.032,0.409-3.343,0.409H389.484z M420.63,301.97l8.288-23.08h4.393l-7.063,19.671h18.72l-1.225,3.409H420.63z
		 M483.314,301.97l5.805-16.162l-17.541,16.162h-3.574l-5.977-16.13l-5.793,16.13h-4.033l8.289-23.08h4.065l6.935,18.852
		l20.408-18.852h3.737l-8.289,23.08H483.314z M497.314,301.97l1.225-3.409h20.064c1.922,0,3.139-0.71,3.649-2.131l1.048-2.918
		c0.51-1.421-0.195-2.132-2.12-2.132h-13.573c-1.311,0-2.377-0.136-3.197-0.408c-0.819-0.274-1.43-0.656-1.832-1.148
		c-0.403-0.492-0.614-1.076-0.633-1.754c-0.02-0.677,0.121-1.431,0.418-2.262l0.483-1.345c0.298-0.831,0.701-1.585,1.206-2.262
		c0.506-0.678,1.137-1.262,1.893-1.754s1.642-0.875,2.658-1.148c1.016-0.272,2.18-0.409,3.49-0.409h19.54l-1.224,3.409h-19.54
		c-1.925,0-3.142,0.71-3.651,2.132l-0.506,1.409c-0.51,1.421,0.197,2.132,2.12,2.132h13.573c1.311,0,2.377,0.137,3.197,0.409
		c0.819,0.273,1.43,0.655,1.834,1.147c0.401,0.492,0.612,1.077,0.631,1.754c0.02,0.678-0.121,1.432-0.418,2.262l-1.024,2.854
		c-0.3,0.83-0.701,1.584-1.206,2.262c-0.506,0.677-1.137,1.262-1.893,1.754s-1.642,0.874-2.657,1.147
		c-1.017,0.273-2.181,0.409-3.491,0.409H497.314z M533.607,301.97l8.289-23.08h23.735l-1.224,3.409h-19.377l-2.071,5.771h18.392
		l-1.225,3.41h-18.393l-2.543,7.081h19.377l-1.226,3.409H533.607z M566.458,301.97l8.288-23.08h23.736l-1.224,3.409h-19.376
		l-2.072,5.771h18.393l-1.225,3.41h-18.393l-2.543,7.081h19.376l-1.226,3.409H566.458z"/>
	<path clip-path="url(#SVGID_2_)" fill="#FFFFFF" d="M303.976,333.129c-9.318,0-16.874-7.557-16.874-16.874
		c0-2.647,0.612-5.151,1.699-7.381c0.555-0.155,0.953-0.41,1.193-0.767h3.306c5.741-0.145,7.709-3.816,5.053-7.763
		c1.759-0.622,3.651-0.964,5.623-0.964c9.318,0,16.874,7.557,16.874,16.874S313.294,333.129,303.976,333.129 M281.872,302.013
		v-7.646l7.003,6.541c-0.726,0.845-2.261,1.107-4.164,1.104H281.872z M303.976,297.51c-2.43,0-4.75,0.468-6.881,1.31
		c-0.222-0.229-0.456-0.457-0.71-0.684l-21.047-18.844h-1.377v24.022l-15.318,16.915c-2.035,2.634,1.854,6.43,4.078,4.354
		l15.813-15.538h8.136c-0.926,2.22-1.439,4.654-1.439,7.21c0,10.351,8.394,18.745,18.745,18.745
		c10.351,0,18.745-8.395,18.745-18.745C322.721,305.903,314.327,297.51,303.976,297.51"/>
	<path clip-path="url(#SVGID_2_)" fill="#FFFFFF" d="M314.599,282.708c2.787,0,5.046-2.349,5.046-5.247
		c0-2.897-2.259-5.247-5.046-5.247c-2.786,0-5.046,2.35-5.046,5.247C309.553,280.359,311.813,282.708,314.599,282.708"/>
	<path clip-path="url(#SVGID_2_)" fill="#FFFFFF" d="M296.409,273.002h-8.465c-0.295,0.014-0.333-0.247,0-0.562l4.015-4.018
		c0.131-0.156,0.255-0.165,0.381-0.016l4.065,3.983C296.723,272.669,296.761,273.006,296.409,273.002 M329.83,278.631
		l-11.336,10.758c-0.766,0.618-1.533,0.557-2.371-0.044c-3.146-2.388-5.43-4.709-7.616-7.021c-2.304-2.724-0.068-7.052-3.085-9.809
		L293.08,260.89h-2.59l-11.681,11.901c-0.588,0.689-0.657,2.101,0.056,2.92c3.127,4.354,6.624,8.265,10.854,11.295h14.435
		l10.91,9.587c1.724,1.531,3.284,1.671,5.069-0.055c5.253-4.536,9.808-9.366,13.664-14.491
		C334.86,279.861,331.57,277.453,329.83,278.631"/>
	<path clip-path="url(#SVGID_2_)" fill="#FFFFFF" d="M243.409,283.367c5.144-3.777,9.252-2.474,13.261-1.202
		c4.71,1.493,9.298,2.948,15.191-2.5c0.358-0.332,0.379-0.89,0.048-1.248c-0.331-0.357-0.89-0.38-1.248-0.049
		c-5.132,4.745-9.24,3.442-13.456,2.105c-4.432-1.406-8.971-2.846-14.843,1.466c-0.394,0.289-0.48,0.843-0.191,1.236
		C242.46,283.571,243.015,283.656,243.409,283.367"/>
	<path clip-path="url(#SVGID_2_)" fill="#FFFFFF" d="M243.409,287.907c5.144-3.777,9.252-2.474,13.261-1.202
		c4.71,1.493,9.298,2.948,15.191-2.5c0.358-0.332,0.379-0.89,0.048-1.248s-0.89-0.38-1.248-0.049
		c-5.132,4.745-9.24,3.442-13.456,2.105c-4.432-1.406-8.971-2.846-14.843,1.466c-0.394,0.289-0.48,0.843-0.191,1.236
		C242.46,288.111,243.015,288.196,243.409,287.907"/>
	<path clip-path="url(#SVGID_2_)" fill="#FFFFFF" d="M243.409,293.291c5.144-3.776,9.252-2.474,13.261-1.202
		c4.71,1.493,9.298,2.948,15.191-2.5c0.358-0.332,0.379-0.89,0.048-1.249c-0.331-0.357-0.89-0.379-1.248-0.048
		c-5.132,4.745-9.24,3.442-13.456,2.105c-4.432-1.406-8.971-2.846-14.843,1.466c-0.394,0.289-0.48,0.843-0.191,1.237
		S243.015,293.58,243.409,293.291"/>
	<path clip-path="url(#SVGID_2_)" fill="#FFFFFF" d="M243.409,297.831c5.144-3.776,9.252-2.474,13.261-1.203
		c4.71,1.494,9.298,2.949,15.191-2.5c0.358-0.331,0.379-0.889,0.048-1.247c-0.331-0.357-0.89-0.38-1.248-0.049
		c-5.132,4.745-9.24,3.442-13.456,2.105c-4.432-1.406-8.971-2.846-14.843,1.465c-0.394,0.29-0.48,0.844-0.191,1.238
		S243.015,298.12,243.409,297.831"/>
	<path clip-path="url(#SVGID_2_)" fill="#FFFFFF" d="M271.861,299.312c0.358-0.331,0.38-0.891,0.049-1.248
		c-0.332-0.358-0.891-0.379-1.248-0.05c-5.132,4.746-9.241,3.443-13.457,2.105c-4.432-1.405-8.971-2.845-14.843,1.466
		c-0.394,0.289-0.479,0.843-0.19,1.238c0.289,0.394,0.843,0.479,1.237,0.19c5.145-3.776,9.252-2.474,13.262-1.202
		C261.38,303.305,265.968,304.76,271.861,299.312"/>
</g>
</svg>
